<?xml version="1.0" encoding="utf-8"?>
<!-- Generator: Adobe Illustrator 28.2.0, SVG Export Plug-In . SVG Version: 6.00 Build 0)  -->
<svg version="1.1" id="Layer_1" xmlns="http://www.w3.org/2000/svg" xmlns:xlink="http://www.w3.org/1999/xlink" x="0px" y="0px"
	 viewBox="0 0 300 300" style="enable-background:new 0 0 300 300;" xml:space="preserve">
<path d="M283.7,156c6.5-9.2-5.2-19.7-13.7-12.4c-79.4,61.6-152.4,65.3-234.2,5.2c-2.1-1.5-4.5-3.4-6.6-5c-3.1-2.8-7.9-3.2-11.4-0.6
	c-3.9,3-4.8,8.5-1.8,12.5l1.6,2.1c3.4,4.4,7.1,8.6,11,12.6c3.5,3.6,7,7,10.7,10.2l-16,23.7l24.9,16.8l15.1-22.4
	c7.1,4.5,14.4,8.4,21.9,11.8l-9.8,28.4l28.3,9.8l9.8-28.4c7,1.7,14,3,21.1,3.7v28.9h30v-28.8c7.4-0.7,14.7-2,22.1-3.8l11.8,27.1
	l27.5-12l-11-25.2c7-3.2,13.8-6.9,20.4-10.9l13.9,18l23.8-18.3l-13.5-17.5C268.5,173.8,276.6,165.3,283.7,156z"/>
</svg>
