<?xml version="1.0" encoding="utf-8"?>
<!-- Generator: Adobe Illustrator 28.2.0, SVG Export Plug-In . SVG Version: 6.00 Build 0)  -->
<svg version="1.1" id="Layer_1" xmlns="http://www.w3.org/2000/svg" xmlns:xlink="http://www.w3.org/1999/xlink" x="0px" y="0px"
	 viewBox="0 0 300 300" style="enable-background:new 0 0 300 300;" xml:space="preserve">
<g>
	<path d="M283.7,144.2l-1.6-2.1c-3.4-4.4-7.1-8.6-11-12.6c-4-4.1-8.1-8-12.4-11.6l12-28.9l-27.7-11.5l-9.3,22.2
		c-6.8-4.1-13.7-7.7-20.9-10.9l6.8-30.4L190.5,52l-6.1,27.4c-6.4-1.5-12.9-2.6-19.4-3.3V47.2h-30v28.8c-6.3,0.6-12.6,1.6-18.9,3
		l-5-24.4l-29.4,6.1l5.8,27.9c-7,3.1-13.7,6.5-20.3,10.4l-8-18.1L31.7,93l10.5,23.7C32.5,124.8,23.7,134,16,144
		c-6.5,9.2,5.2,19.7,13.7,12.4c17.7-13.7,35.1-24.6,52.4-32.5c-4.7,9.9-7.4,20.9-7.4,32.6c0,41.5,33.8,75.3,75.3,75.3
		s75.3-33.8,75.3-75.3c0-11.8-2.7-22.9-7.5-32.8c15.1,6.9,30.5,16,46.1,27.5c2.1,1.5,4.5,3.4,6.6,5c3.1,2.8,7.9,3.2,11.4,0.6
		C285.9,153.8,286.7,148.2,283.7,144.2z M150,204.8c-26.7,0-48.3-21.6-48.3-48.3s21.6-48.3,48.3-48.3s48.3,21.6,48.3,48.3
		S176.7,204.8,150,204.8z"/>
	<path d="M150,129.1c-3.8,0-7.4,0.8-10.7,2.2c2.4,1.9,4,4.8,4,8.2c0,5.7-4.6,10.3-10.3,10.3c-3.3,0-6.3-1.6-8.2-4
		c-1.4,3.3-2.2,6.9-2.2,10.7c0,15.1,12.2,27.3,27.3,27.3c15.1,0,27.3-12.2,27.3-27.3C177.3,141.4,165.1,129.1,150,129.1z"/>
</g>
</svg>
