<?xml version="1.0" encoding="utf-8"?>
<!-- Generator: Adobe Illustrator 28.2.0, SVG Export Plug-In . SVG Version: 6.00 Build 0)  -->
<svg version="1.1" id="Layer_1" xmlns="http://www.w3.org/2000/svg" xmlns:xlink="http://www.w3.org/1999/xlink" x="0px" y="0px"
	 viewBox="0 0 100 100" style="enable-background:new 0 0 100 100;" xml:space="preserve">
<g>
	<path d="M10.3,0v100h79.4V0H10.3z M80.7,91H19.3l0-82h61.4L80.7,91z"/>
	<path d="M67.48,24.07c-4.39-3.8-10.19-5.7-17.42-5.7c-5.02,0-9.43,1.19-13.25,3.58s-6.74,5.77-8.77,10.14
		C26.01,36.46,25,41.56,25,47.4v2.94c0,9.29,2.25,16.49,6.75,21.59s10.66,7.65,18.48,7.65c4.74,0,8.96-0.87,12.65-2.62
		c3.69-1.74,6.56-4.2,8.61-7.38c2.04-3.18,3.16-6.83,3.35-10.98H60.57c-0.11,3.38-1.04,5.85-2.78,7.4
		c-1.74,1.55-4.27,2.33-7.56,2.33c-3.9,0-6.64-1.36-8.24-4.09c-1.59-2.73-2.39-7.26-2.39-13.62v-4.21
		c0.08-5.86,0.95-10.13,2.62-12.8c1.66-2.67,4.28-4.01,7.85-4.01c3.52,0,6.13,0.79,7.85,2.37c1.72,1.58,2.63,4.18,2.74,7.81h14.31
		C74.36,33.11,71.86,27.87,67.48,24.07z"/>
</g>
</svg>
