<?xml version="1.0" encoding="utf-8"?>
<!-- Generator: Adobe Illustrator 28.2.0, SVG Export Plug-In . SVG Version: 6.00 Build 0)  -->
<svg version="1.1" id="Layer_1" xmlns="http://www.w3.org/2000/svg" xmlns:xlink="http://www.w3.org/1999/xlink" x="0px" y="0px"
	 viewBox="0 0 100 100" style="enable-background:new 0 0 100 100;" xml:space="preserve">
<g>
	<path d="M50,0.28C22.54,0.28,0.28,22.54,0.28,50c0,27.46,22.26,49.72,49.72,49.72S99.72,77.46,99.72,50
		C99.72,22.54,77.46,0.28,50,0.28z M50,93.72C25.89,93.72,6.28,74.11,6.28,50S25.89,6.28,50,6.28S93.72,25.89,93.72,50
		S74.11,93.72,50,93.72z"/>
	<polygon points="68.44,25.9 50,44.34 31.56,25.9 25.9,31.56 44.34,50 25.9,68.44 31.56,74.1 50,55.66 68.44,74.1 74.1,68.44 
		55.66,50 74.1,31.56 	"/>
</g>
</svg>
