<?xml version="1.0" encoding="utf-8"?>
<!-- Generator: Adobe Illustrator 28.2.0, SVG Export Plug-In . SVG Version: 6.00 Build 0)  -->
<svg version="1.1" id="Layer_1" xmlns="http://www.w3.org/2000/svg" xmlns:xlink="http://www.w3.org/1999/xlink" x="0px" y="0px"
	 viewBox="0 0 100 100" style="enable-background:new 0 0 100 100;" xml:space="preserve">
<polygon points="42.96,13.38 40.11,23.99 29.49,26.85 40.11,29.71 42.96,40.32 45.82,29.71 56.43,26.85 45.82,23.99 "/>
<polygon points="58.81,14.58 60.09,9.83 64.84,8.55 61.89,7.76 60.09,7.28 58.81,2.53 57.53,7.28 55.73,7.76 52.78,8.55 57.53,9.83 
	"/>
<polygon points="82.87,74.74 83.18,73.59 85.2,66.1 93.84,63.78 85.2,61.45 83.18,53.96 82.87,52.81 80.55,61.45 71.91,63.78 
	80.55,66.1 "/>
<polygon points="21.81,7.76 20.67,3.53 19.53,7.76 18.6,11.19 17.7,11.44 10.94,13.26 17.7,15.08 18.6,15.32 20.67,22.98 
	22.73,15.32 30.39,13.26 22.73,11.19 "/>
<g>
	<polygon points="17.26,80.43 9.5,88.17 19.67,98.33 76.32,41.7 66.17,31.52 	"/>
	<polygon points="86.32,11.36 69.26,28.42 79.41,38.6 96.5,21.52 	"/>
</g>
</svg>
