<?xml version="1.0" encoding="utf-8"?>
<!-- Generator: Adobe Illustrator 28.2.0, SVG Export Plug-In . SVG Version: 6.00 Build 0)  -->
<svg version="1.1" id="Layer_1" xmlns="http://www.w3.org/2000/svg" xmlns:xlink="http://www.w3.org/1999/xlink" x="0px" y="0px"
	 viewBox="0 0 100 100" style="enable-background:new 0 0 100 100;" xml:space="preserve">
<path d="M100,9.94C99.97,4.46,95.54,0.03,90.06,0c0,0-0.01,0-0.01,0c-26.63,0-53.27,0-79.9,0c-0.05,0.02-0.11,0.02-0.16,0.04L9.99,0
	C4.47,0,0,4.47,0,9.99c0,0.23,0.02,0.46,0.04,0.69c-0.01,0.05-0.02,0.1-0.04,0.14c0,26.08,0,52.16,0,78.24
	c0.02,0.05,0.03,0.11,0.04,0.16C0.02,89.49,0,89.75,0,90.01C0,95.53,4.47,100,9.99,100h0.84c1.29,0,2.58,0,3.87,0
	c23.54,0,47.07,0,70.61,0c1.32,0,2.64,0,3.96,0h0.74c5.52,0,9.99-4.47,9.99-9.99c0-0.02,0-0.03,0-0.05c0,0,0-0.01,0-0.01
	c0-26.67,0-53.33,0-80C100,9.95,100,9.94,100,9.94z M30.32,85.22c0,0.81,0,0.82-0.81,0.82c-4.41,0-8.81,0-13.22,0
	c-0.86,0-0.86,0-0.86-0.88c0-7.72,0-15.44,0-23.17c0-7.69,0-15.38,0-23.07c0-0.2,0-0.39,0.01-0.59c0.01-0.23,0.13-0.36,0.37-0.37
	c0.15-0.01,0.29-0.01,0.44-0.01c4.42,0,8.84,0,13.27,0c0.8,0,0.8,0,0.8,0.83C30.32,54.26,30.32,69.74,30.32,85.22z M22.79,31.61
	c-5.03,0-8.78-4.22-8.76-8.86c0.02-4.92,4.13-8.94,8.8-8.81c4.34-0.12,8.75,3.48,8.76,8.84C31.61,27.67,27.65,31.61,22.79,31.61z
	 M85.2,86.03c-4.36,0-8.71,0-13.07,0c-0.79,0-0.79,0-0.79-0.79c0-8.11-0.01-16.23,0-24.34c0-1.47-0.09-2.92-0.4-4.36
	c-0.19-0.86-0.45-1.7-0.84-2.49c-1.13-2.33-3-3.65-5.57-4c-1.21-0.16-2.4-0.09-3.59,0.15C58,50.81,56.06,52.59,55,55.36
	c-0.57,1.49-0.85,3.04-0.85,4.63c-0.02,6.58-0.01,13.17-0.01,19.75c0,1.8,0,3.61,0,5.41c0,0.15,0.01,0.29-0.01,0.44
	c-0.03,0.34-0.1,0.41-0.45,0.43c-0.11,0.01-0.23,0-0.34,0c-4.21,0-8.42,0-12.63,0c-0.79,0-0.8-0.02-0.8-0.78
	c0-15.49,0-30.99,0-46.48c0-0.79,0.01-0.81,0.83-0.81c4.19,0,8.39,0,12.58,0c0.82,0,0.82,0,0.82,0.81c0,1.59,0,3.19,0,4.78
	c0,0.19-0.03,0.39,0.06,0.61c0.22-0.08,0.27-0.25,0.36-0.38c2.93-4.09,6.87-6.54,11.87-7.15c3.16-0.39,6.26-0.04,9.27,1.05
	c2.05,0.74,3.86,1.88,5.4,3.42c1.9,1.9,3.17,4.19,3.95,6.75c0.58,1.9,0.9,3.86,1.02,5.85c0.06,0.98,0.07,1.95,0.07,2.92
	c0,9.49,0,18.99,0,28.48C86.13,86.03,86.13,86.03,85.2,86.03z"/>
</svg>
