<?xml version="1.0" encoding="utf-8"?>
<!-- Generator: Adobe Illustrator 28.2.0, SVG Export Plug-In . SVG Version: 6.00 Build 0)  -->
<svg version="1.1" id="Layer_1" xmlns="http://www.w3.org/2000/svg" xmlns:xlink="http://www.w3.org/1999/xlink" x="0px" y="0px"
	 viewBox="0 0 100 100" style="enable-background:new 0 0 100 100;" xml:space="preserve">
<path d="M99.99,18.87c0-0.47-0.01-0.95-0.03-1.42c-0.22-4.72-3.14-8.69-7.24-9.62c-1.24-0.28-2.54-0.28-3.82-0.26l0-0.04L11.6,7.59
	c-0.05,0-0.11-0.02-0.16-0.02c-1.39-0.02-2.81-0.05-4.16,0.25c-4.1,0.93-7.02,4.9-7.23,9.62c-0.02,0.47-0.04,0.95-0.04,1.42
	c0,20.75,0.02,41.49-0.01,62.24c-0.01,4.26,1.36,7.59,4.58,9.88c1.68,1.2,3.49,1.44,5.37,1.48v0h0.04c0.58,0.01,1.17,0,1.77,0h76.48
	c2.53,0.02,4.97,0.1,7.19-1.48c3.21-2.29,4.58-5.61,4.57-9.88C99.97,60.36,99.99,39.61,99.99,18.87z M86.66,89.1H13.34
	c-0.55,0-0.99-0.44-0.99-0.99V28.3c0-0.85,0.99-1.31,1.64-0.75c5.7,4.94,24.82,21.59,34.88,30.42c0.44,0.39,0.78,0.56,1.13,0.52
	c0.36,0.04,0.7-0.13,1.13-0.52c10.07-8.83,29.18-25.48,34.88-30.42c0.64-0.56,1.64-0.1,1.64,0.75v59.81
	C87.65,88.66,87.21,89.1,86.66,89.1z M51.25,40.16c-0.47,0.42-0.83,0.6-1.21,0.6h-0.09c-0.38,0-0.74-0.19-1.21-0.6
	c-10.34-9.32-20.71-18.61-31.09-27.88c-0.52-0.47-0.19-1.33,0.51-1.33l63.72-0.05c0.7,0,1.03,0.86,0.51,1.33
	C72,21.51,61.61,30.82,51.25,40.16z"/>
</svg>
