<?xml version="1.0" encoding="utf-8"?>
<!-- Generator: Adobe Illustrator 28.2.0, SVG Export Plug-In . SVG Version: 6.00 Build 0)  -->
<svg version="1.1" id="Layer_1" xmlns="http://www.w3.org/2000/svg" xmlns:xlink="http://www.w3.org/1999/xlink" x="0px" y="0px"
	 viewBox="0 0 100 100" style="enable-background:new 0 0 100 100;" xml:space="preserve">
<path d="M95.76,79.06c-5.52-3.45-11.09-6.85-16.64-10.25c-3.88-2.38-5.96-2.27-9.71,0.42c-1.02,0.73-2,1.53-3.08,2.18
	c-4.39,2.64-7.5,2.42-11.7-0.56c-8.84-6.25-16.45-13.81-23.18-22.21c-5.58-6.97-8.34-9.83-0.35-18.96c2.36-2.71,2.51-5.91,0.58-8.91
	C27.74,14.63,23.69,8.54,19.5,2.55c-2.04-2.91-4.45-3.23-7.45-1.49c-1.98,1.14-3.9,2.39-5.9,3.51c-5.19,2.91-6.8,7.49-5.96,13.08
	c0.9,6.01,2.64,11.79,5.3,17.3c7.44,15.49,18.31,28.32,30.78,39.92c10.38,9.68,22,17.45,35.21,22.74c3.73,1.5,7.53,2.74,11.75,2.22
	c4.24,0.57,8.05-0.25,10.94-3.92c1.57-1.99,2.99-4.04,4.2-6.24C101.12,84.7,100.48,82,95.76,79.06"/>
</svg>
