<?xml version="1.0" encoding="utf-8"?>
<!-- Generator: Adobe Illustrator 28.2.0, SVG Export Plug-In . SVG Version: 6.00 Build 0)  -->
<svg version="1.1" id="Layer_1" xmlns="http://www.w3.org/2000/svg" xmlns:xlink="http://www.w3.org/1999/xlink" x="0px" y="0px"
	 viewBox="0 0 100 100" style="enable-background:new 0 0 100 100;" xml:space="preserve">
<g>
	<g>
		<path d="M94.68,27.46l-12.13,7c4.34,9.11,4.72,19.79,0.62,29.48l12.88,5.45c3.83-9.06,4.9-18.97,3.1-28.68
			C98.28,36.07,96.77,31.62,94.68,27.46z"/>
		<path d="M14.65,14.55c-2.31,2.31-4.37,4.83-6.17,7.5l12.15,7.01c1.16-1.63,2.46-3.18,3.91-4.62c6.09-6.09,13.98-9.72,22.47-10.42
			V0C34.78,0.72,23.38,5.82,14.65,14.55z"/>
		<path d="M85.35,14.55C76.62,5.82,65.22,0.72,53,0v14.02c8.49,0.69,16.38,4.33,22.47,10.42c1.52,1.52,2.87,3.14,4.07,4.85
			l12.14-7.01C89.84,19.52,87.73,16.93,85.35,14.55z"/>
		<path d="M0.85,40.72c-1.81,9.7-0.73,19.62,3.1,28.68l12.88-5.45c-4.14-9.78-3.72-20.57,0.74-29.74l-12.12-7
			C3.29,31.44,1.74,35.98,0.85,40.72z"/>
	</g>
	<g>
		<g>
			<g>
				<path d="M46.8,60.83l-7.68-28.15H25.54l13.41,40.19c0.46-1.66,1.25-3.23,2.36-4.6L46.8,60.83z"/>
			</g>
		</g>
	</g>
	<path d="M51.24,88.05c-0.35,0-0.71-0.02-1.06-0.05c-5.66-0.51-10.14-4.99-10.64-10.66c-0.27-3.08,0.64-6.08,2.57-8.47l25.91-35.12
		c0.95-1.29,2.47-2.06,4.06-2.06c0.82,0,1.63,0.2,2.36,0.59c2.23,1.17,3.24,3.75,2.42,6.13l-14.5,41.82
		c-0.04,0.12-0.09,0.25-0.15,0.36C60.45,85.05,56.05,88.05,51.24,88.05L51.24,88.05z M48.48,73.7c-0.04,0.06-0.09,0.12-0.13,0.17
		c-0.64,0.77-0.94,1.75-0.85,2.77c0.16,1.78,1.62,3.25,3.4,3.41c0.12,0.01,0.23,0.02,0.35,0.02c1.59,0,3.03-1,3.57-2.5
		c0.03-0.07,0.05-0.14,0.08-0.21l8.08-23.31L48.48,73.7z"/>
</g>
</svg>
